<svg width="1440" height="450" viewBox="0 0 1440 450" fill="none" xmlns="http://www.w3.org/2000/svg">
<g clip-path="url(#clip0_711_155)">
<rect width="1440" height="450" fill="#F4F4F4"/>
<rect x="1076.5" y="7.5" width="356" height="228" fill="#BF2A37" stroke="#A6243C" stroke-width="15"/>
<path d="M653.532 441.752L442.532 442.244L441.52 7.91862L652.519 7.42665L653.532 441.752Z" fill="white" stroke="#D8D8D8" stroke-width="15"/>
<rect x="-7.4818" y="7.51921" width="183.724" height="111.275" transform="matrix(0.00242379 0.999997 -0.999997 0.00256475 1195.33 269.958)" fill="#BF2A37" stroke="#A6243C" stroke-width="15"/>
<rect x="-7.4818" y="7.51921" width="183.724" height="111.275" transform="matrix(0.00242379 0.999997 -0.999997 0.00256475 1439.57 269.958)" fill="#BF2A37" stroke="#A6243C" stroke-width="15"/>
<rect x="-7.4818" y="7.51921" width="183.724" height="111.275" transform="matrix(0.00242379 0.999997 -0.999997 0.00256475 1317.99 269.958)" fill="#BF2A37" stroke="#A6243C" stroke-width="15"/>
<rect x="1049.39" y="145.5" width="195" height="138" transform="rotate(180 1049.39 145.5)" fill="white" stroke="#E0E0E0" stroke-width="15"/>
<rect x="1049.39" y="441.5" width="195" height="138" transform="rotate(180 1049.39 441.5)" fill="white" stroke="#E0E0E0" stroke-width="15"/>
<rect x="1049.39" y="294.5" width="195" height="138" transform="rotate(180 1049.39 294.5)" fill="white" stroke="#E0E0E0" stroke-width="15"/>
<ellipse cx="46" cy="60.5" rx="121" ry="116.5" fill="#027333"/>
<ellipse cx="267" cy="60.5" rx="121" ry="116.5" fill="#038C3E"/>
<path d="M423 196.277C423 260.618 395.826 267.777 329 267.777C262.174 267.777 208 260.618 208 196.277C208 131.936 262.174 79.7769 329 79.7769C395.826 79.7769 423 131.936 423 196.277Z" fill="#027333"/>
<path d="M835 257.093C835 307.402 813.64 313 761.112 313C708.583 313 666 307.402 666 257.093C666 206.784 708.583 166 761.112 166C813.64 166 835 206.784 835 257.093Z" fill="#E0E0E0"/>
<path d="M726.742 460.91C681.98 458.807 677.888 439.669 680.072 393.178C682.256 346.688 689.007 309.234 733.769 311.337C778.53 313.439 813.046 352.832 810.862 399.323C808.678 445.813 771.504 463.013 726.742 460.91Z" fill="#E0E0E0"/>
<path d="M777.058 153.891C740.736 180.135 725.611 167.714 698.354 129.989C671.097 92.2645 653.041 58.7623 689.363 32.5185C725.685 6.27478 777.227 15.5822 804.484 53.3072C831.742 91.0322 813.38 127.647 777.058 153.891Z" fill="#E0E0E0"/>
<path d="M205 199.5C205 263.841 177.826 271 111 271C44.1735 271 -10 263.841 -10 199.5C-10 135.159 44.1735 83 111 83C177.826 83 205 135.159 205 199.5Z" fill="#038C3E"/>
<path d="M80 287L149.282 438.5H10.718L80 287Z" fill="#027333"/>
<path d="M216 287L285.282 438.5H146.718L216 287Z" fill="#027333"/>
<path d="M354 287L423.282 438.5H284.718L354 287Z" fill="#027333"/>
<path d="M284.511 427.404L215.229 275.904H353.793L284.511 427.404Z" fill="#027333"/>
<path d="M147.511 427.404L78.2287 275.904H216.793L147.511 427.404Z" fill="#027333"/>
<path d="M11.5107 427.404L11.5107 275.904H80.7927L11.5107 427.404Z" fill="#027333"/>
<path d="M422.793 427.404L422.793 275.904H353.511L422.793 427.404Z" fill="#027333"/>
</g>
<defs>
<clipPath id="clip0_711_155">
<rect width="1440" height="450" fill="white"/>
</clipPath>
</defs>
</svg>
