<svg width="103" height="103" viewBox="0 0 103 103" fill="none" xmlns="http://www.w3.org/2000/svg">
<path d="M52.9317 94.509C52.9317 94.509 66.9904 93.3606 74.8142 89.44C82.638 85.5194 88.1256 80.2294 92.8351 73.5994C97.5445 66.9694 100.619 62.6607 101.202 54.5907C101.785 46.5208 93.4503 40.8319 92.8351 31.1467C92.2199 21.4614 101.202 2 101.202 2C101.202 2 83.7218 11.5209 74.8142 11.5043C65.9066 11.4878 51.6445 5.80174 51.6445 5.80174" stroke="black"/>
<path d="M78.0319 51.4224C82.2214 48.6322 83.8243 40.0171 83.8243 40.0171C83.8243 40.0171 72.3484 37.1056 68.3778 40.0171C64.4073 42.9287 63.229 51.4224 63.229 51.4224C63.229 51.4224 73.8423 54.2126 78.0319 51.4224Z" fill="black" fill-opacity="0.52" stroke="black"/>
<path d="M52.288 5.80284C52.288 5.80284 42.1901 5.11941 36.198 5.80272C30.2058 6.48603 20.1325 8.05518 14.3155 12.1389C8.49851 16.2227 5.27405 19.5057 2.73064 26.0787C0.187236 32.6516 1.35898 41.0984 2.73064 46.3546C4.1023 51.6108 5.58029 56.7603 8.52306 59.027C11.4658 61.2938 14.6648 59.8381 17.5335 62.1952C20.4021 64.5522 20.0536 73.5304 21.3951 78.0357C22.7366 82.5411 24.7235 85.7666 25.2567 89.4409C25.7899 93.1153 22.7623 96.1621 25.2567 98.9453C27.7511 101.728 32.3995 100.872 36.198 98.9453C39.9964 97.0189 39.427 90.8668 42.634 89.4409C45.8409 88.0151 48.8668 91.5678 51.6444 89.4409C54.422 87.3141 50.9658 79.3294 49.07 76.7685C47.1742 74.2076 42.9894 74.849 42.634 71.6995C42.2785 68.55 45.9063 66.9586 49.07 65.3633C52.2337 63.768 62.5856 65.3633 62.5856 65.3633L51.6444 76.7685" stroke="black"/>
<path d="M47.1384 5.80078C47.1384 5.80078 49.383 47.1555 47.1384 51.4216C44.8938 55.6878 43.3082 58.4507 40.0588 61.5596C36.8093 64.6686 33.5254 64.6615 30.4047 67.8958C27.2841 71.1301 29.6786 81.2181 23.3251 83.1028C16.9716 84.9875 18.0537 70.2474 17.5327 61.5596C17.0117 52.8718 20.7507 39.3828 20.7507 39.3828" stroke="black"/>
<path d="M40.0601 95.7767C40.0601 95.7767 47.7036 104.134 51.6449 101.479C55.5862 98.8244 51.6449 89.4404 51.6449 89.4404" stroke="black"/>
<ellipse cx="34.9105" cy="46.9876" rx="5.10876" ry="5.10873" fill="black"/>
</svg>
