<svg width="35" height="35" viewBox="0 0 35 35" fill="none" xmlns="http://www.w3.org/2000/svg">
<path d="M17.7752 31.6029C17.7752 31.6029 22.274 31.2354 24.7776 29.9808C27.2812 28.7262 29.0372 27.0334 30.5443 24.9118C32.0513 22.7902 33.035 21.4114 33.2216 18.829C33.4083 16.2466 30.7411 14.4262 30.5443 11.3269C30.3474 8.22766 33.2216 2 33.2216 2C33.2216 2 27.628 5.0467 24.7776 5.04139C21.9272 5.03608 17.3633 3.21656 17.3633 3.21656" stroke="black"/>
<path d="M25.8072 17.8152C27.1479 16.9224 27.6608 14.1655 27.6608 14.1655C27.6608 14.1655 23.9885 13.2339 22.7179 14.1655C21.4474 15.0972 21.0703 17.8152 21.0703 17.8152C21.0703 17.8152 24.4666 18.7081 25.8072 17.8152Z" fill="black" fill-opacity="0.52" stroke="black"/>
<path d="M17.5692 3.21685C17.5692 3.21685 14.3379 2.99815 12.4204 3.21681C10.5029 3.43547 7.27944 3.9376 5.418 5.2444C3.55657 6.55121 2.52475 7.60178 1.71086 9.70511C0.896966 11.8084 1.27193 14.5114 1.71086 16.1934C2.14979 17.8754 2.62274 19.5232 3.56443 20.2486C4.50612 20.974 5.5298 20.5081 6.44777 21.2624C7.36574 22.0166 7.25421 24.8897 7.68348 26.3314C8.11276 27.7731 8.74858 28.8052 8.9192 29.981C9.08982 31.1568 8.12099 32.1318 8.9192 33.0224C9.71741 33.913 11.2049 33.6389 12.4204 33.0224C13.6359 32.406 13.4537 30.4373 14.4799 29.981C15.5061 29.5248 16.4744 30.6616 17.3633 29.981C18.2521 29.3005 17.1461 26.7453 16.5394 25.9259C15.9328 25.1064 14.5937 25.3116 14.4799 24.3038C14.3662 23.296 15.5271 22.7867 16.5394 22.2762C17.5518 21.7657 20.8645 22.2762 20.8645 22.2762L17.3633 25.9259" stroke="black"/>
<path d="M15.9214 3.21631C15.9214 3.21631 16.6397 16.4498 15.9214 17.815C15.2031 19.1802 14.6957 20.0643 13.6559 21.0591C12.6161 22.054 11.5652 22.0518 10.5666 23.0867C9.56802 24.1217 10.3343 27.3499 8.30115 27.953C6.26803 28.556 6.61428 23.8392 6.44757 21.0591C6.28086 18.279 7.47734 13.9626 7.47734 13.9626" stroke="black"/>
<path d="M13.6562 32.0086C13.6562 32.0086 16.1022 34.6829 17.3634 33.8334C18.6246 32.9838 17.3634 29.981 17.3634 29.981" stroke="black"/>
<ellipse cx="12.0083" cy="16.396" rx="1.6348" ry="1.63479" fill="black"/>
</svg>
